<svg id="Layer_1" data-name="Layer 1" xmlns="http://www.w3.org/2000/svg" viewBox="0 0 612 792"><defs><style>.cls-1{fill:none;}.cls-1,.cls-3{stroke:#dd2c4a;stroke-miterlimit:10;}.cls-2{font-size:16.61px;fill:#e1505a;font-family:MyriadPro-Regular, Myriad Pro;}.cls-3{fill:#dd2c4a;stroke-width:0.5px;}.cls-4{fill:#161311;}.cls-5{fill:#fff;}</style></defs><line class="cls-1" x1="144.99" y1="614.07" x2="499.41" y2="614.07"/><line class="cls-1" x1="144.99" y1="614.07" x2="144.99" y2="603.01"/><line class="cls-1" x1="499.41" y1="614.07" x2="499.41" y2="603.01"/><text class="cls-2" transform="translate(118.97 620.3)">0.0</text><text class="cls-2" transform="translate(118.97 546.57)">0.5</text><text class="cls-2" transform="translate(118.97 472.84)">1.0</text><text class="cls-2" transform="translate(118.97 399.12)">1.5</text><text class="cls-2" transform="translate(118.97 325.39)">2.0</text><text class="cls-2" transform="translate(118.97 251.66)">2.5</text><text class="cls-2" transform="translate(118.97 177.93)">3.0</text><line class="cls-1" x1="144.99" y1="614.07" x2="144.99" y2="171.7"/><line class="cls-1" x1="144.99" y1="614.07" x2="153.85" y2="614.07"/><line class="cls-1" x1="144.99" y1="540.34" x2="153.85" y2="540.34"/><line class="cls-1" x1="144.99" y1="466.61" x2="153.85" y2="466.61"/><line class="cls-1" x1="144.99" y1="392.88" x2="153.85" y2="392.88"/><line class="cls-1" x1="144.99" y1="319.16" x2="153.85" y2="319.16"/><line class="cls-1" x1="144.99" y1="245.43" x2="153.85" y2="245.43"/><line class="cls-1" x1="144.99" y1="171.7" x2="153.85" y2="171.7"/><line class="cls-1" x1="144.99" y1="599.33" x2="153.85" y2="599.33"/><line class="cls-1" x1="144.99" y1="584.58" x2="153.85" y2="584.58"/><line class="cls-1" x1="144.99" y1="569.83" x2="153.85" y2="569.83"/><line class="cls-1" x1="144.99" y1="555.09" x2="153.85" y2="555.09"/><line class="cls-1" x1="144.99" y1="525.6" x2="153.85" y2="525.6"/><line class="cls-1" x1="144.99" y1="510.85" x2="153.85" y2="510.85"/><line class="cls-1" x1="144.99" y1="496.11" x2="153.85" y2="496.11"/><line class="cls-1" x1="144.99" y1="481.36" x2="153.85" y2="481.36"/><line class="cls-1" x1="144.99" y1="451.87" x2="153.85" y2="451.87"/><line class="cls-1" x1="144.99" y1="437.12" x2="153.85" y2="437.12"/><line class="cls-1" x1="144.99" y1="422.38" x2="153.85" y2="422.38"/><line class="cls-1" x1="144.99" y1="407.63" x2="153.85" y2="407.63"/><line class="cls-1" x1="144.99" y1="378.14" x2="153.85" y2="378.14"/><line class="cls-1" x1="144.99" y1="363.39" x2="153.85" y2="363.39"/><line class="cls-1" x1="144.99" y1="348.65" x2="153.85" y2="348.65"/><line class="cls-1" x1="144.99" y1="333.9" x2="153.85" y2="333.9"/><line class="cls-1" x1="144.99" y1="304.41" x2="153.85" y2="304.41"/><line class="cls-1" x1="144.99" y1="289.66" x2="153.85" y2="289.66"/><line class="cls-1" x1="144.99" y1="274.92" x2="153.85" y2="274.92"/><line class="cls-1" x1="144.99" y1="260.17" x2="153.85" y2="260.17"/><line class="cls-1" x1="144.99" y1="230.68" x2="153.85" y2="230.68"/><line class="cls-1" x1="144.99" y1="215.94" x2="153.85" y2="215.94"/><line class="cls-1" x1="144.99" y1="201.19" x2="153.85" y2="201.19"/><line class="cls-1" x1="144.99" y1="186.44" x2="153.85" y2="186.44"/><rect class="cls-3" x="374.18" y="171.7" width="85.06" height="442.37"/><rect class="cls-3" x="279.67" y="319.16" width="85.06" height="294.92"/><rect class="cls-3" x="185.16" y="466.61" width="85.06" height="147.46"/><path class="cls-4" d="M189.25,644.16v17.68h-2.52V654H176.58v7.88h-2.53V644.16h2.53v7.6h10.15v-7.6Z"/><path class="cls-4" d="M193,655.15a7,7,0,1,1,7,6.84A6.66,6.66,0,0,1,193,655.15Zm11.47,0a4.51,4.51,0,1,0-4.5,4.72A4.39,4.39,0,0,0,204.43,655.15Z"/><path class="cls-4" d="M222.71,648.45v13.39h-2.3v-2a5.43,5.43,0,0,1-4.54,2.17c-3.46,0-5.76-1.9-5.76-5.83v-7.71h2.42v7.43c0,2.62,1.31,3.94,3.61,3.94,2.53,0,4.14-1.57,4.14-4.45v-6.92Z"/><path class="cls-4" d="M234.52,648.33v2.35a3.51,3.51,0,0,0-.55,0c-2.6,0-4.22,1.59-4.22,4.52v6.67h-2.42V648.45h2.32v2.25C230.51,649.13,232.18,648.33,234.52,648.33Z"/><path class="cls-4" d="M235.91,660.42l1-1.92a8.61,8.61,0,0,0,4.7,1.39c2.25,0,3.18-.68,3.18-1.81,0-3-8.46-.41-8.46-5.74,0-2.4,2.15-4,5.58-4a9.77,9.77,0,0,1,4.88,1.21l-1,1.92a7,7,0,0,0-3.86-1.06c-2.13,0-3.16.78-3.16,1.84,0,3.16,8.48.58,8.48,5.78,0,2.43-2.22,4-5.78,4A9.61,9.61,0,0,1,235.91,660.42Z"/><path class="cls-4" d="M255.35,660.42l1-1.92a8.61,8.61,0,0,0,4.7,1.39c2.25,0,3.18-.68,3.18-1.81,0-3-8.46-.41-8.46-5.74,0-2.4,2.15-4,5.58-4a9.77,9.77,0,0,1,4.88,1.21l-1,1.92a7,7,0,0,0-3.86-1.06c-2.12,0-3.16.78-3.16,1.84,0,3.16,8.49.58,8.49,5.78,0,2.43-2.23,4-5.79,4A9.61,9.61,0,0,1,255.35,660.42Z"/><path class="cls-4" d="M283.56,655.15a6.51,6.51,0,0,1-6.77,6.84,5.71,5.71,0,0,1-4.67-2.17v6.92h-2.43V648.45H272v2.12a5.68,5.68,0,0,1,4.77-2.24A6.5,6.5,0,0,1,283.56,655.15Zm-2.45,0a4.51,4.51,0,1,0-4.52,4.72A4.43,4.43,0,0,0,281.11,655.15Z"/><path class="cls-4" d="M299,656H288.1a4.54,4.54,0,0,0,4.85,3.92,5,5,0,0,0,3.86-1.62l1.34,1.57a6.72,6.72,0,0,1-5.28,2.17c-4.32,0-7.19-2.85-7.19-6.84a6.55,6.55,0,0,1,6.71-6.82c3.87,0,6.62,2.78,6.62,6.89C299,655.42,299,655.73,299,656Zm-10.86-1.74h8.59a4.32,4.32,0,0,0-8.59,0Z"/><path class="cls-4" d="M315.07,654.14v7.7h-2.43v-7.43c0-2.62-1.31-3.91-3.61-3.91-2.57,0-4.24,1.54-4.24,4.44v6.9h-2.42V648.45h2.32v2a5.73,5.73,0,0,1,4.82-2.14C312.77,648.33,315.07,650.2,315.07,654.14Z"/><path class="cls-4" d="M327.08,661.05a4.51,4.51,0,0,1-2.92.94c-2.71,0-4.25-1.49-4.25-4.19v-7.35h-2.27v-2h2.27v-2.93h2.43v2.93h3.84v2h-3.84v7.25a2,2,0,0,0,2.09,2.24,3,3,0,0,0,1.9-.63Z"/><path class="cls-4" d="M336.8,643.1h2.43v18.74H336.8Z"/><path class="cls-4" d="M343.42,644.31a1.6,1.6,0,0,1,1.64-1.59,1.57,1.57,0,0,1,1.64,1.54,1.64,1.64,0,0,1-3.28,0Zm.43,4.14h2.42v13.39h-2.42Z"/><path class="cls-4" d="M349.2,660.42l1-1.92a8.61,8.61,0,0,0,4.7,1.39c2.25,0,3.18-.68,3.18-1.81,0-3-8.46-.41-8.46-5.74,0-2.4,2.15-4,5.58-4a9.7,9.7,0,0,1,4.87,1.21l-1,1.92a7,7,0,0,0-3.86-1.06c-2.13,0-3.16.78-3.16,1.84,0,3.16,8.48.58,8.48,5.78,0,2.43-2.22,4-5.78,4A9.61,9.61,0,0,1,349.2,660.42Z"/><path class="cls-4" d="M371.07,661.05a4.55,4.55,0,0,1-2.93.94c-2.7,0-4.24-1.49-4.24-4.19v-7.35h-2.28v-2h2.28v-2.93h2.42v2.93h3.84v2h-3.84v7.25a2,2,0,0,0,2.1,2.24,3,3,0,0,0,1.89-.63Z"/><path class="cls-4" d="M385.59,656H374.73a4.53,4.53,0,0,0,4.85,3.92,5,5,0,0,0,3.86-1.62l1.34,1.57A6.74,6.74,0,0,1,379.5,662c-4.32,0-7.2-2.85-7.2-6.84a6.56,6.56,0,0,1,6.72-6.82c3.86,0,6.62,2.78,6.62,6.89C385.64,655.42,385.61,655.73,385.59,656Zm-10.86-1.74h8.58a4.32,4.32,0,0,0-8.58,0Z"/><path class="cls-4" d="M401.7,654.14v7.7h-2.43v-7.43c0-2.62-1.31-3.91-3.61-3.91-2.58,0-4.24,1.54-4.24,4.44v6.9H389V648.45h2.33v2a5.73,5.73,0,0,1,4.82-2.14C399.4,648.33,401.7,650.2,401.7,654.14Z"/><path class="cls-4" d="M405.76,644.31a1.59,1.59,0,0,1,1.64-1.59,1.57,1.57,0,0,1,1.64,1.54,1.59,1.59,0,0,1-1.64,1.62A1.57,1.57,0,0,1,405.76,644.31Zm.43,4.14h2.42v13.39h-2.42Z"/><path class="cls-4" d="M425.93,654.14v7.7h-2.42v-7.43c0-2.62-1.31-3.91-3.61-3.91-2.58,0-4.24,1.54-4.24,4.44v6.9h-2.43V648.45h2.32v2a5.76,5.76,0,0,1,4.83-2.14C423.64,648.33,425.93,650.2,425.93,654.14Z"/><path class="cls-4" d="M443.3,648.45V660c0,4.72-2.39,6.87-6.94,6.87a9.88,9.88,0,0,1-6.39-2l1.16-1.87a8.18,8.18,0,0,0,5.15,1.75c3.16,0,4.6-1.47,4.6-4.5v-1.06a6.11,6.11,0,0,1-4.82,2.07c-3.87,0-6.8-2.62-6.8-6.49s2.93-6.46,6.8-6.46a6.13,6.13,0,0,1,4.95,2.19v-2.07Zm-2.37,6.34a4.62,4.62,0,1,0-4.6,4.37A4.27,4.27,0,0,0,440.93,654.79Z"/><path class="cls-5" d="M326,503.25l-3.51-5.07h-3.87v5.07h-4.21v-18.2h7.87c4.87,0,7.91,2.52,7.91,6.6a5.93,5.93,0,0,1-3.75,5.75l4.09,5.85Zm-3.95-14.77h-3.43v6.35h3.43c2.57,0,3.87-1.2,3.87-3.18S324.62,488.48,322.05,488.48Z"/><path class="cls-5" d="M313.26,525.35c0-5.41,4.21-9.41,10-9.41s10,4,10,9.41-4.24,9.41-10,9.41S313.26,530.76,313.26,525.35Zm15.65,0a5.69,5.69,0,1,0-5.69,5.82A5.55,5.55,0,0,0,328.91,525.35Z"/><path class="cls-5" d="M313.26,556.55c0-5.49,4.21-9.41,9.88-9.41a9.4,9.4,0,0,1,7.49,3.22l-2.7,2.5a5.86,5.86,0,0,0-4.58-2.14,5.83,5.83,0,0,0,0,11.65,5.79,5.79,0,0,0,4.58-2.16l2.7,2.5a9.34,9.34,0,0,1-7.51,3.25C317.47,566,313.26,562,313.26,556.55Z"/><path class="cls-5" d="M321,589.7l-2.45,2.55v4.6h-4.18v-18.2h4.18v8.5l8.06-8.5h4.68l-7.54,8.11,8,10.09h-4.91Z"/><path class="cls-5" d="M233.33,522.85c0,4.06-3,6.58-7.9,6.58h-3.67v5h-4.21v-18.2h7.88C230.29,516.25,233.33,518.77,233.33,522.85Zm-4.26,0c0-2-1.3-3.17-3.88-3.17h-3.43V526h3.43C227.77,526,229.07,524.83,229.07,522.85Z"/><path class="cls-5" d="M216.4,556.55c0-5.41,4.22-9.41,10-9.41s10,4,10,9.41-4.24,9.41-10,9.41S216.4,562,216.4,556.55Zm15.66,0a5.7,5.7,0,1,0-5.7,5.82A5.56,5.56,0,0,0,232.06,556.55Z"/><path class="cls-5" d="M233.33,585.25c0,4.06-3,6.58-7.9,6.58h-3.67v5h-4.21v-18.2h7.88C230.29,578.65,233.33,581.17,233.33,585.25Zm-4.26,0c0-2-1.3-3.17-3.88-3.17h-3.43v6.32h3.43C227.77,588.4,229.07,587.23,229.07,585.25Z"/><path class="cls-5" d="M407.87,338.15c0-5.49,4.21-9.41,9.88-9.41a9.38,9.38,0,0,1,7.48,3.22l-2.7,2.5a5.85,5.85,0,0,0-4.58-2.14A5.83,5.83,0,0,0,418,344a5.78,5.78,0,0,0,4.58-2.16l2.7,2.5a9.33,9.33,0,0,1-7.51,3.25C412.08,347.56,407.87,343.63,407.87,338.15Z"/><path class="cls-5" d="M409,360.25h4.21V375h9.13v3.43H409Z"/><path class="cls-5" d="M421,405.75h-8.46l-1.61,3.9h-4.31l8.11-18.2h4.16l8.14,18.2h-4.42Zm-1.33-3.2-2.89-7-2.88,7Z"/><path class="cls-5" d="M407.58,439.05l1.43-3.17a10.68,10.68,0,0,0,6,1.9c2.49,0,3.51-.83,3.51-1.95,0-3.41-10.59-1.07-10.59-7.83,0-3.09,2.5-5.66,7.67-5.66a12.17,12.17,0,0,1,6.32,1.61l-1.3,3.2a10.19,10.19,0,0,0-5-1.43c-2.5,0-3.46.93-3.46,2.08,0,3.35,10.58,1,10.58,7.72,0,3-2.52,5.64-7.72,5.64A12.94,12.94,0,0,1,407.58,439.05Z"/><path class="cls-5" d="M407.58,470.25l1.43-3.17a10.68,10.68,0,0,0,6,1.9c2.49,0,3.51-.83,3.51-2,0-3.41-10.59-1.07-10.59-7.83,0-3.09,2.5-5.66,7.67-5.66a12.17,12.17,0,0,1,6.32,1.61l-1.3,3.2a10.19,10.19,0,0,0-5-1.43c-2.5,0-3.46.93-3.46,2.08,0,3.35,10.58,1,10.58,7.72,0,3-2.52,5.64-7.72,5.64A12.94,12.94,0,0,1,407.58,470.25Z"/><path class="cls-5" d="M409,485.05h4.21v18.2H409Z"/><path class="cls-5" d="M407.87,525.35c0-5.49,4.21-9.41,9.88-9.41a9.38,9.38,0,0,1,7.48,3.22l-2.7,2.5a5.85,5.85,0,0,0-4.58-2.14,5.83,5.83,0,0,0,0,11.65,5.78,5.78,0,0,0,4.58-2.16l2.7,2.5a9.33,9.33,0,0,1-7.51,3.25C412.08,534.76,407.87,530.83,407.87,525.35Z"/><path class="cls-5" d="M421,561.75h-8.46l-1.61,3.9h-4.31l8.11-18.2h4.16l8.14,18.2h-4.42Zm-1.33-3.2-2.89-7-2.88,7Z"/><path class="cls-5" d="M409,578.65h4.21v14.77h9.13v3.43H409Z"/></svg>